<svg width="35" height="35" viewBox="0 0 35 35" fill="none" xmlns="http://www.w3.org/2000/svg">
<path d="M27.7083 1.4585H7.29167C5.35851 1.46081 3.50519 2.22978 2.13824 3.59673C0.771286 4.96368 0.00231563 6.817 0 8.75016L0 26.2502C0.00231563 28.1833 0.771286 30.0366 2.13824 31.4036C3.50519 32.7705 5.35851 33.5395 7.29167 33.5418H27.7083C29.6415 33.5395 31.4948 32.7705 32.8618 31.4036C34.2287 30.0366 34.9977 28.1833 35 26.2502V8.75016C34.9977 6.817 34.2287 4.96368 32.8618 3.59673C31.4948 2.22978 29.6415 1.46081 27.7083 1.4585ZM7.29167 4.37516H27.7083C28.5816 4.37688 29.4343 4.63987 30.1568 5.13029C30.8793 5.62071 31.4385 6.31613 31.7625 7.12704L20.5946 18.2964C19.7727 19.115 18.66 19.5746 17.5 19.5746C16.34 19.5746 15.2273 19.115 14.4054 18.2964L3.2375 7.12704C3.56147 6.31613 4.12069 5.62071 4.84319 5.13029C5.5657 4.63987 6.41844 4.37688 7.29167 4.37516ZM27.7083 30.6252H7.29167C6.13134 30.6252 5.01855 30.1642 4.19807 29.3438C3.3776 28.5233 2.91667 27.4105 2.91667 26.2502V10.9377L12.3433 20.3585C13.7122 21.7239 15.5666 22.4906 17.5 22.4906C19.4334 22.4906 21.2878 21.7239 22.6567 20.3585L32.0833 10.9377V26.2502C32.0833 27.4105 31.6224 28.5233 30.8019 29.3438C29.9815 30.1642 28.8687 30.6252 27.7083 30.6252Z" fill="#D27368"/>
</svg>
