<svg width="34" height="35" viewBox="0 0 34 35" fill="none" xmlns="http://www.w3.org/2000/svg">
<path fill-rule="evenodd" clip-rule="evenodd" d="M16.8775 0C7.55688 0 0 7.82742 0 17.4849C0 25.2104 4.83539 31.7643 11.5414 34.0767C12.3852 34.2384 12.6947 33.6978 12.6947 33.2359C12.6947 32.8192 12.6792 31.4423 12.6722 29.9808C7.97741 31.0387 6.98586 27.9176 6.98586 27.9176C6.21794 25.8966 5.11246 25.359 5.11246 25.359C3.58084 24.2735 5.22779 24.2968 5.22779 24.2968C6.92257 24.4206 7.81427 26.0992 7.81427 26.0992C9.31917 28.7715 11.7622 27.9992 12.7256 27.5519C12.8775 26.4212 13.3149 25.6504 13.7973 25.2133C10.0491 24.7718 6.10824 23.2724 6.10824 16.5728C6.10824 14.664 6.76786 13.1035 7.84802 11.8796C7.67221 11.4381 7.09416 9.66043 8.01117 7.25188C8.01117 7.25188 9.42888 6.7827 12.6539 9.04408C13.9999 8.6565 15.4429 8.46271 16.8775 8.45542C18.312 8.46271 19.7565 8.6565 21.1053 9.04408C24.326 6.78124 25.7423 7.25188 25.7423 7.25188C26.6608 9.66043 26.0827 11.4381 25.9083 11.8796C26.9899 13.1035 27.6453 14.664 27.6453 16.5728C27.6453 23.2885 23.6974 24.7674 19.9393 25.2002C20.5441 25.7422 21.0842 26.8073 21.0842 28.4378C21.0842 30.7779 21.0645 32.6604 21.0645 33.2359C21.0645 33.7008 21.3683 34.2472 22.2234 34.0752C28.9266 31.7599 33.7563 25.2089 33.7563 17.4864C33.7549 7.82888 26.198 0 16.8775 0Z" fill="#D27368"/>
<path d="M6.3923 25.105C6.35573 25.1924 6.22352 25.2186 6.10257 25.1589C5.98021 25.1021 5.91129 24.9826 5.95067 24.8966C5.98724 24.8077 6.11945 24.783 6.24181 24.8427C6.36417 24.8981 6.43449 25.0175 6.3923 25.105Z" fill="#D27368"/>
<path d="M7.07596 25.8951C6.99579 25.9723 6.83827 25.9359 6.73138 25.8149C6.62027 25.6926 6.60058 25.5294 6.68215 25.4521C6.76513 25.3749 6.91703 25.4113 7.02814 25.5337C7.13925 25.6547 7.16034 25.8164 7.07596 25.8951Z" fill="#D27368"/>
<path d="M7.74114 26.9014C7.63706 26.9757 7.46829 26.9057 7.36421 26.7513C7.26013 26.5954 7.26013 26.4089 7.36702 26.3346C7.4711 26.2603 7.63847 26.3273 7.74395 26.4817C7.84662 26.6391 7.84662 26.8256 7.74114 26.9014Z" fill="#D27368"/>
<path d="M8.65247 27.8752C8.55965 27.9816 8.36274 27.9524 8.21929 27.8082C8.07161 27.6668 8.03082 27.4672 8.12365 27.3608C8.21788 27.2545 8.41619 27.2851 8.56105 27.4279C8.70733 27.5692 8.75093 27.7703 8.65247 27.8752Z" fill="#D27368"/>
<path d="M9.91133 28.4387C9.87055 28.5756 9.68067 28.6383 9.4894 28.58C9.29812 28.5203 9.17294 28.36 9.21232 28.2216C9.25171 28.0832 9.44298 28.019 9.63567 28.0817C9.82554 28.14 9.95071 28.3003 9.91133 28.4387Z" fill="#D27368"/>
<path d="M11.2924 28.5437C11.2966 28.6879 11.1349 28.8074 10.9337 28.8103C10.7326 28.8147 10.5681 28.6981 10.5667 28.5568C10.5667 28.4111 10.7256 28.2931 10.9267 28.2887C11.1278 28.2843 11.2924 28.4009 11.2924 28.5437Z" fill="#D27368"/>
<path d="M12.578 28.318C12.6019 28.4579 12.4626 28.6036 12.2629 28.6414C12.0674 28.6793 11.886 28.5919 11.8607 28.452C11.8367 28.3078 11.9788 28.1635 12.1743 28.1256C12.3726 28.0892 12.5526 28.1737 12.578 28.318Z" fill="#D27368"/>
</svg>
