<svg width="259" height="75" viewBox="0 0 259 75" fill="none" xmlns="http://www.w3.org/2000/svg">
<path d="M97.4049 54.8562H93.0122V14.6412H105.139C112.748 14.6412 117.76 19.467 117.76 26.8913C117.76 35.553 111.511 38.7702 102.045 38.7702H97.4049V54.8562ZM105.139 19.0339H97.4049V34.3775H104.644C110.521 34.3775 113.615 31.8409 113.615 26.8913C113.615 21.8799 110.521 19.0339 105.139 19.0339ZM138.721 20.2713C136.618 20.2713 135.504 19.1577 135.504 16.9923C135.504 14.9506 136.68 13.8369 138.721 13.8369C140.825 13.8369 141.939 14.9506 141.939 16.9923C141.939 19.1577 140.825 20.2713 138.721 20.2713ZM150.353 51.4534C150.353 52.567 150.353 53.8044 150.662 54.8562H128.266V51.2678H137.113V29.0568L131.111 28.7474V25.4683H141.382L141.32 51.2678H150.353V51.4534ZM180.966 45.6377L185.977 46.3801C184.864 52.0102 179.852 55.5986 173.109 55.5986C164.633 55.5986 159.869 50.2779 159.869 41.1212C159.869 31.779 164.199 24.664 173.109 24.664C178.801 24.664 183.936 27.8812 185.482 32.7689L180.657 34.13C179.605 30.7272 176.511 28.7474 173.109 28.7474C167.355 28.7474 164.756 33.4495 164.756 41.1212C164.756 47.9269 167.664 51.5153 173.109 51.5153C177.378 51.5153 180.224 49.4736 180.966 45.6377ZM219.56 37.2235C218.075 42.5442 215.353 46.0708 211.332 47.7412C213.064 50.4635 214.982 53.0001 217.395 54.8562L211.27 54.9181C209.537 53.6188 208.176 51.3297 206.691 48.8549C206.073 48.8549 205.392 48.9168 204.712 48.9168C202.794 48.9168 200.814 48.4218 199.082 47.4938L197.597 54.8562H193.204L201.433 14.3319L205.763 14.6412L203.041 28.1287C205.083 26.2108 207.31 24.664 209.909 24.664C218.075 24.664 221.107 31.8409 219.56 37.2235ZM214.734 36.9141C215.848 33.1401 214.24 27.8812 209.104 27.8812C206.753 27.8812 204.526 29.0568 202.484 30.9128L201.866 34.0063C204.835 36.4811 207.001 40.5026 209.352 44.524C212.012 43.2248 213.621 40.5026 214.734 36.9141ZM199.948 43.1629C201.185 44.2147 202.794 45.019 204.65 45.2046C203.474 43.1629 202.175 41.1212 200.752 39.4508L199.948 43.1629ZM253.143 30.2941C248.132 27.5719 242.564 29.9848 241.574 34.3775V51.2678H250.297V51.4534C250.297 52.567 250.297 53.8044 250.607 54.8562H228.21V51.2678H237.305V29.0568L231.303 28.7474V25.4683H242.13C241.759 26.0252 241.326 28.2525 241.326 28.933C243.368 25.0353 248.008 24.664 250.297 24.664C251.411 24.664 252.524 24.7259 255.865 26.0252L253.143 30.2941Z" fill="white"/>
<rect x="10.4835" y="18.8907" width="14.4148" height="51.1071" rx="7.2074" transform="rotate(-30 10.4835 18.8907)" fill="white"/>
<circle cx="9.17306" cy="50.9964" r="9.17306" fill="white"/>
<circle cx="48.1586" cy="20.5288" r="8.84545" fill="#E16C63"/>
</svg>
