<svg width="34" height="34" viewBox="0 0 34 34" fill="none" xmlns="http://www.w3.org/2000/svg">
<g clip-path="url(#clip0_53_98)">
<path d="M17 0C13.6377 0 10.3509 0.997033 7.55531 2.86502C4.75968 4.733 2.58075 7.38804 1.29406 10.4944C0.00736586 13.6007 -0.329291 17.0189 0.326658 20.3165C0.982607 23.6142 2.6017 26.6433 4.97919 29.0208C7.35668 31.3983 10.3858 33.0174 13.6835 33.6734C16.9811 34.3293 20.3993 33.9926 23.5056 32.706C26.612 31.4193 29.267 29.2403 31.135 26.4447C33.003 23.6491 34 20.3623 34 17C33.9951 12.4928 32.2025 8.17163 29.0154 4.98457C25.8284 1.79751 21.5072 0.00487487 17 0ZM29.2499 9.91667H24.6868C23.6654 7.5494 22.3204 5.33529 20.6904 3.33767C24.2979 4.31931 27.3733 6.68308 29.2499 9.91667ZM23.375 17C23.3634 18.4424 23.1361 19.8749 22.7007 21.25H11.2993C10.8639 19.8749 10.6366 18.4424 10.625 17C10.6366 15.5576 10.8639 14.1251 11.2993 12.75H22.7007C23.1361 14.1251 23.3634 15.5576 23.375 17ZM12.4355 24.0833H21.5645C20.3621 26.4573 18.8249 28.6462 17 30.583C15.1745 28.6467 13.6372 26.4577 12.4355 24.0833ZM12.4355 9.91667C13.6379 7.54272 15.1751 5.35381 17 3.417C18.8256 5.35326 20.3628 7.54227 21.5645 9.91667H12.4355ZM13.3167 3.33767C11.6842 5.33486 10.3368 7.54899 9.31317 9.91667H4.75009C6.62839 6.68161 9.70652 4.31765 13.3167 3.33767ZM3.48642 12.75H8.35834C7.99108 14.1371 7.80068 15.5651 7.79167 17C7.80068 18.4349 7.99108 19.8629 8.35834 21.25H3.48642C2.61566 18.4836 2.61566 15.5164 3.48642 12.75ZM4.75009 24.0833H9.31317C10.3368 26.451 11.6842 28.6651 13.3167 30.6623C9.70652 29.6823 6.62839 27.3184 4.75009 24.0833ZM20.6904 30.6623C22.3204 28.6647 23.6654 26.4506 24.6868 24.0833H29.2499C27.3733 27.3169 24.2979 29.6807 20.6904 30.6623ZM30.5136 21.25H25.6417C26.0089 19.8629 26.1993 18.4349 26.2083 17C26.1993 15.5651 26.0089 14.1371 25.6417 12.75H30.5108C31.3815 15.5164 31.3815 18.4836 30.5108 21.25H30.5136Z" fill="#D27368"/>
</g>
<defs>
<clipPath id="clip0_53_98">
<rect width="34" height="34" fill="white"/>
</clipPath>
</defs>
</svg>
